<?xml version="1.0" encoding="UTF-8"?>
<svg xmlns="http://www.w3.org/2000/svg" xmlns:xlink="http://www.w3.org/1999/xlink" width="50px" height="px" viewBox="0 0 50 50" version="1.1">
<g id="surface1">
<path style=" stroke:none;fill-rule:nonzero;fill:rgb(0%,0%,0%);fill-opacity:1;" d="M 24.996094 0 C 11.195312 0 0 11.238281 0 25.101562 C -0.0117188 35.890625 6.875 45.476562 17.101562 48.914062 C 18.351562 49.148438 18.804688 48.371094 18.804688 47.707031 C 18.804688 47.109375 18.785156 45.53125 18.773438 43.4375 C 11.820312 44.953125 10.351562 40.070312 10.351562 40.070312 C 9.214844 37.171875 7.574219 36.398438 7.574219 36.398438 C 5.304688 34.84375 7.742188 34.875 7.742188 34.875 C 10.253906 35.054688 11.570312 37.460938 11.570312 37.460938 C 13.804688 41.296875 17.425781 40.191406 18.851562 39.546875 C 19.074219 37.925781 19.722656 36.820312 20.4375 36.191406 C 14.886719 35.554688 9.050781 33.402344 9.050781 23.789062 C 9.050781 21.046875 10.023438 18.804688 11.625 17.050781 C 11.367188 16.414062 10.507812 13.863281 11.867188 10.410156 C 11.867188 10.410156 13.96875 9.734375 18.742188 12.980469 C 20.785156 12.421875 22.886719 12.140625 25.003906 12.136719 C 27.117188 12.140625 29.222656 12.425781 31.261719 12.984375 C 36.035156 9.738281 38.132812 10.414062 38.132812 10.414062 C 39.492188 13.867188 38.636719 16.417969 38.382812 17.054688 C 39.984375 18.808594 40.949219 21.050781 40.949219 23.789062 C 40.949219 33.429688 35.105469 35.554688 29.539062 36.175781 C 30.433594 36.949219 31.234375 38.480469 31.234375 40.820312 C 31.234375 44.179688 31.203125 46.882812 31.203125 47.707031 C 31.203125 48.378906 31.652344 49.160156 32.921875 48.914062 C 43.136719 45.464844 50.011719 35.882812 50 25.101562 C 50 11.238281 38.804688 0 24.996094 0 Z M 24.996094 0 "/>
</g>
</svg>
