<?xml version="1.0" encoding="UTF-8"?>
<svg xmlns="http://www.w3.org/2000/svg" xmlns:xlink="http://www.w3.org/1999/xlink" width="50px" height="px" viewBox="0 0 50 50" version="1.1">
<g id="surface1">
<path style=" stroke:none;fill-rule:nonzero;fill:rgb(91.764706%,26.666667%,20.784314%);fill-opacity:1;" d="M 25.90625 29.855469 L 6.078125 17.234375 C 3.945312 15.824219 3.335938 12.964844 4.710938 10.808594 C 6.082031 8.652344 8.929688 7.992188 11.109375 9.328125 L 25.65625 18.585938 L 38.71875 9.441406 C 40.839844 8.003906 43.71875 8.535156 45.1875 10.632812 C 46.65625 12.734375 46.167969 15.621094 44.09375 17.121094 Z M 25.90625 29.855469 "/>
<path style=" stroke:none;fill-rule:nonzero;fill:rgb(0%,67.45098%,27.843137%);fill-opacity:1;" d="M 42.96875 41.40625 L 36.71875 41.40625 L 36.71875 13.28125 C 36.71875 10.691406 38.816406 8.59375 41.40625 8.59375 C 43.996094 8.59375 46.09375 10.691406 46.09375 13.28125 L 46.09375 38.28125 C 46.09375 40.007812 44.695312 41.40625 42.96875 41.40625 Z M 42.96875 41.40625 "/>
<path style=" stroke:none;fill-rule:nonzero;fill:rgb(100%,72.941176%,0%);fill-opacity:1;" d="M 46.023438 12.601562 C 46.011719 12.507812 46.011719 12.414062 45.992188 12.320312 C 45.964844 12.175781 45.90625 12.042969 45.863281 11.90625 C 45.824219 11.746094 45.773438 11.589844 45.714844 11.4375 C 45.683594 11.363281 45.636719 11.296875 45.601562 11.226562 C 45.503906 11.015625 45.390625 10.816406 45.261719 10.625 C 45.199219 10.535156 45.121094 10.457031 45.054688 10.371094 C 44.933594 10.214844 44.808594 10.066406 44.671875 9.925781 C 44.566406 9.824219 44.449219 9.738281 44.335938 9.648438 C 44.214844 9.546875 44.089844 9.449219 43.960938 9.359375 C 43.835938 9.277344 43.699219 9.214844 43.570312 9.148438 C 43.429688 9.074219 43.296875 8.996094 43.152344 8.9375 C 43.011719 8.882812 42.863281 8.847656 42.71875 8.804688 C 42.574219 8.761719 42.429688 8.710938 42.28125 8.683594 C 42.097656 8.652344 41.910156 8.632812 41.722656 8.625 C 41.605469 8.617188 41.488281 8.597656 41.367188 8.597656 C 41.148438 8.605469 40.925781 8.628906 40.710938 8.664062 C 40.621094 8.679688 40.53125 8.675781 40.445312 8.695312 C 40.148438 8.785156 39.855469 8.878906 39.5625 8.972656 C 39.484375 9.007812 39.414062 9.058594 39.335938 9.097656 C 37.714844 9.855469 36.6875 11.492188 36.71875 13.28125 L 36.71875 22.285156 L 44.09375 17.121094 C 45.574219 16.128906 46.328125 14.359375 46.023438 12.601562 Z M 46.023438 12.601562 "/>
<path style=" stroke:none;fill-rule:nonzero;fill:rgb(25.882353%,52.156863%,95.686275%);fill-opacity:1;" d="M 8.59375 8.59375 C 11.183594 8.59375 13.28125 10.691406 13.28125 13.28125 L 13.28125 41.40625 L 7.03125 41.40625 C 5.304688 41.40625 3.90625 40.007812 3.90625 38.28125 L 3.90625 13.28125 C 3.90625 10.691406 6.003906 8.59375 8.59375 8.59375 Z M 8.59375 8.59375 "/>
<path style=" stroke:none;fill-rule:nonzero;fill:rgb(77.254902%,14.509804%,15.686275%);fill-opacity:1;" d="M 3.976562 12.601562 C 3.988281 12.507812 3.988281 12.414062 4.007812 12.320312 C 4.035156 12.175781 4.09375 12.042969 4.136719 11.90625 C 4.175781 11.746094 4.226562 11.589844 4.285156 11.4375 C 4.316406 11.363281 4.363281 11.296875 4.398438 11.226562 C 4.496094 11.015625 4.609375 10.816406 4.738281 10.625 C 4.800781 10.535156 4.878906 10.457031 4.945312 10.371094 C 5.066406 10.214844 5.191406 10.066406 5.328125 9.925781 C 5.433594 9.824219 5.550781 9.738281 5.664062 9.648438 C 5.785156 9.546875 5.910156 9.449219 6.039062 9.359375 C 6.164062 9.277344 6.300781 9.214844 6.429688 9.148438 C 6.566406 9.070312 6.707031 9 6.847656 8.9375 C 6.988281 8.882812 7.136719 8.847656 7.28125 8.804688 C 7.425781 8.761719 7.570312 8.710938 7.71875 8.683594 C 7.902344 8.652344 8.089844 8.632812 8.277344 8.625 C 8.394531 8.617188 8.511719 8.597656 8.632812 8.597656 C 8.851562 8.605469 9.074219 8.625 9.292969 8.664062 C 9.378906 8.675781 9.46875 8.675781 9.554688 8.695312 C 9.707031 8.734375 9.855469 8.777344 10.003906 8.832031 C 10.148438 8.871094 10.292969 8.917969 10.4375 8.972656 C 10.519531 9.007812 10.589844 9.058594 10.667969 9.097656 C 10.867188 9.191406 11.0625 9.300781 11.25 9.425781 C 12.523438 10.296875 13.28125 11.738281 13.28125 13.28125 L 13.28125 22.285156 L 5.90625 17.121094 C 4.425781 16.128906 3.671875 14.359375 3.976562 12.601562 Z M 3.976562 12.601562 "/>
</g>
</svg>
