<?xml version="1.0" encoding="UTF-8"?>
<svg xmlns="http://www.w3.org/2000/svg" xmlns:xlink="http://www.w3.org/1999/xlink" width="50px" height="px" viewBox="0 0 50 50" version="1.1">
<defs>
<radialGradient id="radial0" gradientUnits="userSpaceOnUse" cx="6.601" cy="99.766" fx="6.601" fy="99.766" r="129.502" gradientTransform="matrix(0.490196,0,0,0.490196,0,0)">
<stop offset="0.09" style="stop-color:rgb(98.039216%,56.078431%,12.941176%);stop-opacity:1;"/>
<stop offset="0.78" style="stop-color:rgb(84.705882%,17.647059%,49.411765%);stop-opacity:1;"/>
</radialGradient>
<radialGradient id="radial1" gradientUnits="userSpaceOnUse" cx="70.652" cy="96.49" fx="70.652" fy="96.49" r="113.963" gradientTransform="matrix(0.490196,0,0,0.490196,0,0)">
<stop offset="0.64" style="stop-color:rgb(54.901961%,22.745098%,66.666667%);stop-opacity:0;"/>
<stop offset="1" style="stop-color:rgb(54.901961%,22.745098%,66.666667%);stop-opacity:1;"/>
</radialGradient>
</defs>
<g id="surface1">
<path style=" stroke:none;fill-rule:nonzero;fill:url(#radial0);" d="M 12.679688 49.824219 C 10.746094 49.800781 8.828125 49.445312 7.015625 48.773438 C 5.691406 48.285156 4.492188 47.503906 3.507812 46.492188 C 2.492188 45.511719 1.714844 44.3125 1.226562 42.988281 C 0.554688 41.171875 0.199219 39.257812 0.179688 37.324219 C 0.03125 34.109375 0 33.144531 0 25 C 0 16.855469 0.03125 15.894531 0.175781 12.675781 C 0.199219 10.742188 0.554688 8.828125 1.226562 7.015625 C 1.714844 5.691406 2.496094 4.492188 3.507812 3.507812 C 4.488281 2.492188 5.6875 1.714844 7.015625 1.226562 C 8.828125 0.554688 10.742188 0.199219 12.675781 0.175781 C 15.894531 0.03125 16.859375 0 25 0 C 33.140625 0 34.105469 0.03125 37.324219 0.175781 C 39.257812 0.199219 41.171875 0.554688 42.984375 1.226562 C 44.3125 1.714844 45.507812 2.492188 46.492188 3.507812 C 47.507812 4.492188 48.285156 5.6875 48.773438 7.015625 C 49.445312 8.828125 49.800781 10.742188 49.824219 12.675781 C 49.96875 15.894531 50 16.859375 50 25 C 50 33.144531 49.96875 34.105469 49.824219 37.324219 C 49.800781 39.257812 49.445312 41.171875 48.773438 42.988281 C 47.75 45.648438 45.644531 47.75 42.984375 48.773438 C 41.171875 49.445312 39.257812 49.800781 37.324219 49.824219 C 34.109375 49.96875 33.140625 50 25 50 C 16.855469 50 15.894531 49.972656 12.679688 49.824219 "/>
<path style=" stroke:none;fill-rule:nonzero;fill:url(#radial1);" d="M 12.679688 49.824219 C 10.746094 49.800781 8.828125 49.445312 7.015625 48.773438 C 5.691406 48.285156 4.492188 47.503906 3.507812 46.492188 C 2.492188 45.511719 1.714844 44.3125 1.226562 42.988281 C 0.554688 41.171875 0.199219 39.257812 0.179688 37.324219 C 0.03125 34.109375 0 33.144531 0 25 C 0 16.855469 0.03125 15.894531 0.175781 12.675781 C 0.199219 10.742188 0.554688 8.828125 1.226562 7.015625 C 1.714844 5.691406 2.496094 4.492188 3.507812 3.507812 C 4.488281 2.492188 5.6875 1.714844 7.015625 1.226562 C 8.828125 0.554688 10.742188 0.199219 12.675781 0.175781 C 15.894531 0.03125 16.859375 0 25 0 C 33.140625 0 34.105469 0.03125 37.324219 0.175781 C 39.257812 0.199219 41.171875 0.554688 42.984375 1.226562 C 44.3125 1.714844 45.507812 2.492188 46.492188 3.507812 C 47.507812 4.492188 48.285156 5.6875 48.773438 7.015625 C 49.445312 8.828125 49.800781 10.742188 49.824219 12.675781 C 49.96875 15.894531 50 16.859375 50 25 C 50 33.144531 49.96875 34.105469 49.824219 37.324219 C 49.800781 39.257812 49.445312 41.171875 48.773438 42.988281 C 47.75 45.648438 45.644531 47.75 42.984375 48.773438 C 41.171875 49.445312 39.257812 49.800781 37.324219 49.824219 C 34.109375 49.96875 33.140625 50 25 50 C 16.855469 50 15.894531 49.972656 12.679688 49.824219 "/>
<path style=" stroke:none;fill-rule:nonzero;fill:rgb(100%,100%,100%);fill-opacity:1;" d="M 18.859375 25.105469 C 18.863281 21.6875 21.632812 18.914062 25.054688 18.914062 C 28.472656 18.914062 31.246094 21.6875 31.246094 25.109375 C 31.246094 28.527344 28.472656 31.300781 25.050781 31.296875 C 21.632812 31.296875 18.859375 28.527344 18.859375 25.105469 M 15.515625 25.105469 C 15.515625 30.375 19.785156 34.644531 25.050781 34.644531 C 30.320312 34.644531 34.589844 30.375 34.589844 25.105469 C 34.589844 19.839844 30.320312 15.566406 25.050781 15.566406 C 19.785156 15.566406 15.511719 19.839844 15.515625 25.105469 M 32.738281 15.191406 C 32.738281 16.421875 33.734375 17.417969 34.964844 17.421875 C 36.199219 17.421875 37.195312 16.421875 37.195312 15.191406 C 37.195312 13.960938 36.199219 12.960938 34.96875 12.960938 C 33.738281 12.960938 32.742188 13.960938 32.738281 15.191406 M 17.546875 40.226562 C 16.371094 40.214844 15.203125 39.996094 14.097656 39.589844 C 12.480469 38.964844 11.199219 37.683594 10.574219 36.066406 C 10.164062 34.960938 9.949219 33.792969 9.9375 32.613281 C 9.84375 30.65625 9.828125 30.070312 9.828125 25.109375 C 9.828125 20.148438 9.847656 19.5625 9.9375 17.601562 C 9.949219 16.425781 10.164062 15.257812 10.574219 14.152344 C 11.199219 12.53125 12.476562 11.25 14.097656 10.625 C 15.203125 10.21875 16.371094 10.003906 17.546875 9.988281 C 19.507812 9.898438 20.09375 9.882812 25.054688 9.882812 C 30.011719 9.882812 30.601562 9.902344 32.558594 9.988281 C 33.738281 10.003906 34.902344 10.21875 36.007812 10.628906 C 37.628906 11.25 38.910156 12.53125 39.535156 14.152344 C 39.945312 15.257812 40.160156 16.425781 40.171875 17.601562 C 40.261719 19.5625 40.28125 20.148438 40.28125 25.109375 C 40.28125 30.070312 40.261719 30.65625 40.171875 32.617188 C 40.160156 33.792969 39.941406 34.960938 39.535156 36.066406 C 38.910156 37.6875 37.628906 38.964844 36.007812 39.589844 C 34.90625 40 33.738281 40.214844 32.558594 40.226562 C 30.601562 40.316406 30.015625 40.335938 25.054688 40.335938 C 20.09375 40.335938 19.507812 40.316406 17.546875 40.226562 M 17.394531 6.644531 C 15.851562 6.675781 14.328125 6.964844 12.886719 7.507812 C 10.390625 8.472656 8.417969 10.445312 7.453125 12.941406 C 6.910156 14.382812 6.621094 15.910156 6.589844 17.449219 C 6.496094 19.429688 6.476562 20.0625 6.476562 25.109375 C 6.476562 30.152344 6.496094 30.785156 6.589844 32.765625 C 6.621094 34.308594 6.910156 35.832031 7.453125 37.277344 C 8.417969 39.773438 10.390625 41.746094 12.886719 42.710938 C 14.328125 43.25 15.851562 43.542969 17.394531 43.570312 C 19.375 43.664062 20.007812 43.683594 25.054688 43.683594 C 30.097656 43.683594 30.730469 43.664062 32.710938 43.570312 C 34.253906 43.542969 35.777344 43.25 37.222656 42.710938 C 39.714844 41.746094 41.6875 39.773438 42.652344 37.277344 C 43.195312 35.832031 43.488281 34.308594 43.515625 32.765625 C 43.605469 30.785156 43.628906 30.152344 43.628906 25.109375 C 43.628906 20.0625 43.605469 19.429688 43.515625 17.449219 C 43.488281 15.910156 43.195312 14.382812 42.652344 12.941406 C 41.6875 10.445312 39.71875 8.472656 37.222656 7.507812 C 35.777344 6.964844 34.253906 6.675781 32.710938 6.644531 C 30.730469 6.554688 30.097656 6.53125 25.054688 6.53125 C 20.011719 6.53125 19.378906 6.554688 17.394531 6.644531 "/>
</g>
</svg>
