<?xml version="1.0" encoding="UTF-8"?>
<svg xmlns="http://www.w3.org/2000/svg" xmlns:xlink="http://www.w3.org/1999/xlink" width="50px" height="px" viewBox="0 0 50 50" version="1.1">
<g id="surface1">
<path style=" stroke:none;fill-rule:evenodd;fill:rgb(6.666667%,49.411765%,72.156863%);fill-opacity:1;" d="M 2.777344 0 L 47.222656 0 C 48.757812 0 50 1.242188 50 2.777344 L 50 47.222656 C 50 48.757812 48.757812 50 47.222656 50 L 2.777344 50 C 1.242188 50 0 48.757812 0 47.222656 L 0 2.777344 C 0 1.242188 1.242188 0 2.777344 0 Z M 2.777344 0 "/>
<path style=" stroke:none;fill-rule:evenodd;fill:rgb(100%,100%,100%);fill-opacity:1;" d="M 9.125 19.339844 L 15.808594 19.339844 L 15.808594 40.839844 L 9.125 40.839844 Z M 12.464844 8.652344 C 14.601562 8.652344 16.339844 10.386719 16.339844 12.523438 C 16.339844 14.664062 14.601562 16.398438 12.464844 16.398438 C 11.066406 16.425781 9.757812 15.691406 9.050781 14.484375 C 8.339844 13.273438 8.339844 11.777344 9.050781 10.566406 C 9.757812 9.355469 11.066406 8.625 12.464844 8.652344 Z M 20 19.339844 L 26.410156 19.339844 L 26.410156 22.277344 L 26.496094 22.277344 C 27.390625 20.585938 29.570312 18.804688 32.820312 18.804688 C 39.585938 18.804688 40.835938 23.257812 40.835938 29.046875 L 40.835938 40.839844 L 34.160156 40.839844 L 34.160156 30.382812 C 34.160156 27.890625 34.113281 24.683594 30.6875 24.683594 C 27.210938 24.683594 26.675781 27.398438 26.675781 30.203125 L 26.675781 40.839844 L 19.996094 40.839844 L 19.996094 19.339844 Z M 20 19.339844 "/>
</g>
</svg>
